# xmcd CD database file
#
# Track frame offsets:
#	150
#	19092
#	37732
#	52582
#	68622
#	85122
#	103092
#	116116
#	132796
#	152446
#	162571
#	193255
#	209155
#	227955
#	237975
#	250509
#	257937
#	273483
#	285497
#	298875
#	320561
#	333739
#
# Disc length: 4595 seconds
#
# Revision: 0
# Processed by: cddbd v1.5.2PL0 Copyright (c) Steve Scherf et al.
# Submitted via: CDex 1.51
#
DISCID=4611f116
DTITLE=MCMXXV - Mary Chanel Martin 25 Mixtape
DYEAR=2008
DGENRE=Blues
TTITLE0=Fleetwood Mac - Every Day I Have the Blues
TTITLE1=Kings of Leon - Crawl
TTITLE2=UNKLE - mayday
TTITLE3=Beastie Boys - Unite
TTITLE4=Bloc Party - Helicopter
TTITLE5=Kings of Leon - Closer
TTITLE6=Black Rebel Motorcycle Club - Shuffle Your Feet
TTITLE7=Spoon - Don't Make Me a Target
TTITLE8=Black Rebel Motorcycle Club - Shade Of Blue
TTITLE9=Kings Of Leon - Molly's Chambers
TTITLE10=14 Deep South - 2-14 Deep South - recoded
TTITLE11=Hippomothamus - It's Bigger Than Hip-Hop // Weird Fishes_Arpeggi
TTITLE12=The Black Keys - Psychotic Girl
TTITLE13=Jimmie Vaughan - Little Son, Big Sun
TTITLE14=Bob Dylan - Down in the Flood
TTITLE15=John Hammond - Rag Mama
TTITLE16=David Bowie - Suffragette City
TTITLE17=John Hammond - Someday Baby Blues
TTITLE18=John Hammond - Shore Leave
TTITLE19=R.L. Burnside - Shake 'Em On Down
TTITLE20=John Lee Hooker - Terraplane Blues
TTITLE21=Django Reinhardt - Swing
EXTD=YEAR: 2008
EXTT0=
EXTT1=
EXTT2=
EXTT3=
EXTT4=
EXTT5=
EXTT6=
EXTT7=
EXTT8=
EXTT9=
EXTT10=
EXTT11=
EXTT12=
EXTT13=
EXTT14=
EXTT15=
EXTT16=
EXTT17=
EXTT18=
EXTT19=
EXTT20=
EXTT21=
PLAYORDER=
